<svg width="538" height="587" viewBox="0 0 538 587" fill="none" xmlns="http://www.w3.org/2000/svg">
<path d="M449.103 248.096L441.773 304.252L348.072 473.887L300.411 479.39C300.411 479.39 303.304 381.228 304.48 367.48C305.174 359.681 310.074 329.869 314.172 305.552L305.907 328.113L269.55 256.295L299.803 230.676L320.249 270.339C321.56 264.158 327.212 238.614 332.564 230.369C338.679 220.944 357.986 213.767 357.986 213.767L449.103 248.096Z" fill="#E9EAF6"/>
<path d="M365.489 166.423L384.776 159.917L409.851 169.63L423.295 202.918L359.441 219.409L358.217 186.418L365.489 166.423Z" fill="#EBAD90"/>
<path d="M331.57 111.941L328.823 110.464C328.443 112.84 328.355 115.226 328.562 117.621C328.577 117.749 328.55 117.867 328.482 117.975C328.415 118.085 328.321 118.163 328.197 118.21C328.074 118.258 327.95 118.266 327.822 118.233C327.694 118.199 327.59 118.132 327.511 118.031C326.184 116.368 325.02 114.605 324.019 112.742C323.018 110.879 322.196 108.946 321.552 106.943C320.908 104.938 320.454 102.897 320.188 100.814C319.922 98.733 319.849 96.6438 319.968 94.5499C320.885 78.6456 331.773 72.2396 341.86 74.5549C351.948 76.8701 360.599 74.5549 373.744 75.1122C386.89 75.6695 413.766 77.4641 421.714 89.5388C429.66 101.615 414.683 137.877 414.374 147.266C414.065 156.654 414.075 169.352 409.793 169.64C405.511 169.928 388.403 173.469 382.598 166.99C376.791 160.513 352.701 144.607 352.701 144.607L339.865 126.944L331.57 111.941Z" fill="#7D2D2D"/>
<path d="M286.668 299.621L152.615 293.524C152.286 293.497 151.963 293.444 151.644 293.366C151.325 293.287 151.014 293.183 150.714 293.054C150.413 292.924 150.125 292.771 149.851 292.596C149.577 292.419 149.319 292.221 149.08 292.003C148.84 291.787 148.62 291.549 148.422 291.296C148.224 291.043 148.049 290.776 147.899 290.492C147.747 290.21 147.621 289.919 147.52 289.616C147.421 289.312 147.347 289.005 147.302 288.69L127.869 131.277C127.841 131.136 127.822 130.994 127.812 130.851C127.802 130.707 127.8 130.562 127.807 130.419C127.813 130.276 127.828 130.132 127.853 129.991C127.876 129.849 127.909 129.709 127.95 129.57C127.992 129.433 128.04 129.296 128.097 129.164C128.154 129.032 128.22 128.903 128.292 128.777C128.365 128.652 128.444 128.531 128.532 128.414C128.619 128.296 128.714 128.187 128.814 128.08C128.915 127.973 129.021 127.873 129.135 127.779C129.247 127.685 129.365 127.597 129.488 127.516C129.612 127.437 129.74 127.362 129.872 127.295C130.004 127.23 130.139 127.169 130.278 127.118C130.419 127.067 130.561 127.023 130.704 126.988C130.85 126.952 130.995 126.925 131.144 126.905C131.291 126.886 131.439 126.874 131.588 126.873C131.737 126.87 131.887 126.876 132.034 126.889L265.914 132.978C266.241 133.003 266.565 133.056 266.884 133.134C267.202 133.212 267.513 133.315 267.814 133.444C268.114 133.572 268.402 133.725 268.674 133.9C268.949 134.075 269.206 134.271 269.446 134.489C269.685 134.706 269.905 134.941 270.103 135.194C270.302 135.446 270.477 135.714 270.629 135.995C270.779 136.276 270.906 136.569 271.007 136.87C271.108 137.172 271.18 137.479 271.228 137.793L290.853 295.215C290.879 295.357 290.896 295.5 290.904 295.643C290.914 295.787 290.914 295.93 290.904 296.073C290.896 296.217 290.879 296.36 290.854 296.502C290.83 296.643 290.795 296.783 290.754 296.92C290.711 297.059 290.661 297.194 290.603 297.326C290.545 297.459 290.479 297.588 290.407 297.713C290.334 297.839 290.253 297.959 290.165 298.076C290.078 298.193 289.984 298.303 289.883 298.409C289.782 298.516 289.676 298.616 289.564 298.71C289.45 298.804 289.333 298.892 289.211 298.973C289.087 299.054 288.959 299.129 288.827 299.196C288.695 299.263 288.561 299.323 288.421 299.376C288.282 299.428 288.142 299.473 287.996 299.51C287.853 299.546 287.707 299.575 287.559 299.596C287.411 299.616 287.263 299.629 287.114 299.634C286.965 299.637 286.817 299.634 286.668 299.621Z" fill="#18253B"/>
<path d="M273.176 254.128C273.176 254.527 273.108 254.919 273.06 255.319C272.819 257.55 272.249 259.967 270.379 261.045C268.507 262.123 265.557 261.668 263.252 260.468C260.948 259.269 258.873 257.504 256.656 256.062C253.231 253.832 249.413 252.418 245.795 250.559C241.1 248.125 236.888 245.071 233.162 241.394C230.693 239.114 228.765 236.467 227.375 233.454C225.852 229.848 225.852 226.018 225.842 222.402C225.842 212.623 225.476 202.686 222.679 192.832C222.39 191.848 222.091 190.816 221.879 189.785C221.754 189.227 221.661 188.667 221.6 188.101C218.706 185.127 212.023 179.011 206.824 178.805C202.002 178.592 197.122 183.565 194.624 186.578C194.74 187.245 194.811 187.917 194.837 188.593C194.837 189.608 194.837 190.63 194.837 191.606C194.451 201.31 196.592 211.33 198.994 221.222C199.891 224.94 200.826 228.751 200.19 232.255C199.897 233.646 199.423 234.975 198.771 236.246C198.116 237.517 197.304 238.684 196.332 239.747C194.882 241.44 193.263 242.967 191.477 244.329C189.691 245.69 187.776 246.856 185.733 247.825C182.541 249.378 178.983 250.457 176.088 252.4C174.161 253.655 172.578 255.254 170.515 256.247C169.971 256.532 169.401 256.746 168.801 256.889C168.202 257.034 167.594 257.102 166.976 257.096C166.358 257.091 165.752 257.01 165.155 256.855C164.559 256.701 163.992 256.476 163.455 256.183C161.275 254.871 160.118 252.464 159.309 250.141C159.164 249.741 159.028 249.341 158.903 248.932C156.386 241.133 156.482 233.185 156.975 225.563C157.15 221.849 157.644 218.174 158.452 214.541C159.261 210.905 160.376 207.361 161.797 203.904C165.75 194.655 172.404 186.697 181.509 182.059C183.177 181.116 184.975 180.554 186.899 180.377C188.155 180.312 189.356 180.522 190.507 181.009C192.519 177.524 195.138 174.533 198.366 172.038L196.043 153.642C196.36 151.151 207.287 151.226 209.631 154.256L211.916 172.754C214.281 173.977 216.485 175.428 218.527 177.106C220.569 178.785 222.403 180.652 224.03 182.71C225.266 182.18 226.553 182.02 227.887 182.235C229.977 182.633 231.932 183.367 233.75 184.439C244.089 189.961 252.826 198.614 259.124 208.338C263.596 215.322 267.007 222.759 269.356 230.647C271.701 238.419 273.774 246.469 273.176 254.128Z" fill="#FB3333" fill-opacity="0.99"/>
<path d="M281.21 293.979H280.959L156.744 288.327C156.397 288.301 156.055 288.247 155.718 288.164C155.381 288.083 155.053 287.975 154.736 287.839C154.417 287.704 154.115 287.543 153.824 287.36C153.535 287.175 153.263 286.968 153.01 286.739C152.756 286.51 152.524 286.263 152.314 285.995C152.103 285.729 151.918 285.448 151.758 285.15C151.596 284.854 151.462 284.546 151.356 284.226C151.249 283.908 151.171 283.583 151.12 283.252L133.163 137.384C133.067 136.744 133.116 136.113 133.311 135.492C133.508 134.873 133.83 134.323 134.283 133.843C134.735 133.382 135.271 133.037 135.885 132.808C136.5 132.578 137.136 132.486 137.793 132.532L261.825 138.166C262.172 138.193 262.512 138.247 262.849 138.33C263.186 138.413 263.515 138.522 263.832 138.658C264.149 138.795 264.453 138.956 264.744 139.14C265.033 139.327 265.304 139.534 265.557 139.763C265.811 139.994 266.043 140.242 266.252 140.51C266.461 140.777 266.646 141.059 266.806 141.357C266.966 141.655 267.1 141.963 267.206 142.282C267.311 142.602 267.389 142.927 267.437 143.26L285.578 289.108C285.675 289.75 285.627 290.382 285.431 291.005C285.236 291.626 284.912 292.177 284.459 292.659C284.038 293.089 283.544 293.419 282.978 293.648C282.413 293.877 281.823 293.989 281.21 293.979ZM137.512 133.935C137.099 133.925 136.703 133.997 136.32 134.147C135.938 134.298 135.603 134.515 135.314 134.8C135.019 135.134 134.811 135.513 134.691 135.935C134.568 136.357 134.545 136.785 134.62 137.217L152.567 283.056C152.604 283.308 152.661 283.554 152.741 283.795C152.822 284.037 152.921 284.269 153.041 284.494C153.162 284.72 153.302 284.933 153.459 285.136C153.618 285.338 153.791 285.526 153.983 285.701C154.175 285.874 154.378 286.032 154.598 286.172C154.816 286.312 155.045 286.435 155.285 286.538C155.524 286.642 155.772 286.725 156.027 286.788C156.281 286.85 156.539 286.893 156.801 286.914L281.026 292.548C281.468 292.581 281.894 292.522 282.308 292.371C282.721 292.22 283.082 291.991 283.389 291.683C283.693 291.352 283.909 290.973 284.04 290.549C284.169 290.124 284.2 289.694 284.131 289.256L265.991 143.427C265.953 143.177 265.896 142.93 265.815 142.69C265.735 142.449 265.635 142.217 265.514 141.992C265.393 141.766 265.255 141.554 265.096 141.352C264.937 141.15 264.764 140.962 264.572 140.788C264.381 140.615 264.178 140.459 263.958 140.317C263.74 140.177 263.512 140.056 263.272 139.952C263.031 139.85 262.785 139.766 262.53 139.704C262.276 139.64 262.018 139.599 261.757 139.578L137.716 133.935H137.512ZM259.25 144.263L232.419 143.045L233.587 152.425L260.416 153.642L259.25 144.263ZM260.707 153.903L233.356 152.658V152.452L232.16 142.785L259.511 144.03V144.236L260.707 153.903ZM233.808 152.183L260.127 153.382L259.028 144.505L232.718 143.306L233.808 152.183Z" fill="white"/>
<path d="M358.767 112.212C351.437 130.478 362.914 137.534 362.914 137.534L362.74 137.839C369.49 127.828 383.821 131.064 383.821 142.553C383.821 154.041 374.352 153.707 374.352 153.707C375.267 159.285 382.597 166.954 382.597 166.954C382.597 166.954 376.31 186.251 351.158 187.832C328.976 189.226 327.607 154.591 327.607 154.591C327.607 154.591 321.82 152.527 322.408 148.4C322.997 144.272 330.047 137.505 330.655 134.271C331.261 131.035 331.57 111.886 331.57 111.886C336.052 112.774 340.578 113.244 345.153 113.3C349.725 113.354 354.264 112.991 358.767 112.212Z" fill="#EBAD90"/>
<path d="M369.558 216.322L417.335 255.542L409.996 266.148L345.14 477.754L314.587 478.154C314.587 478.154 311.82 371.402 312.225 365.509C312.63 359.615 311.405 350.98 304.075 337.622C296.745 324.264 301.635 308.564 306.111 296.387C310.584 284.209 347.811 228.528 348.969 226.873C351.862 222.663 359.084 212.931 359.084 212.931L369.558 216.322Z" fill="#16A085"/>
<path d="M317.673 443.137L307.441 455.771C307.441 455.771 284.98 461.962 271.229 462.398C257.475 462.834 237.927 455.63 233.615 454.032C229.305 452.433 231.939 449.03 231.939 449.03C231.939 449.03 231.175 448.296 224.918 445.787C218.658 443.277 222.776 436.955 222.776 436.955C222.776 436.955 217.424 434.744 218.339 430.328C219.256 425.913 225.833 425.764 225.833 425.764C226.893 416.784 254.244 419.581 254.244 419.581C244.466 418.402 228.524 411.327 235.457 408.976C242.393 406.625 266.869 408.529 273.802 410.89C280.738 413.252 292.232 422.045 292.232 422.045L317.673 443.137Z" fill="#EBAD90"/>
<mask id="mask0_145_947" style="mask-type:luminance" maskUnits="userSpaceOnUse" x="291" y="202" width="191" height="279">
<path d="M291.812 202.597H481.629V480.606H291.812V202.597Z" fill="white"/>
</mask>
<g mask="url(#mask0_145_947)">
<path d="M327.298 480.562C327.298 480.562 328.157 475.691 329.227 464.759C316.69 467.027 308.521 468.347 308.521 468.347L292.222 422.018C292.222 422.018 312.022 414.061 332.979 405.816C333.808 315.536 368.613 214.995 368.613 214.995L423.199 202.909C451.108 214.297 472.287 241.021 475.951 257.875C479.616 274.728 473.059 337.595 473.916 356.837C474.775 376.079 481.294 479.39 481.294 479.39L327.298 480.562Z" fill="#E9EAF6"/>
</g>
<path d="M284.218 244.211L281.962 225.953C271.96 218.09 272.877 197.909 272.606 197.388C269.55 196.206 252.133 181.482 258.556 176.473C263.039 172.968 272.163 182.051 277.235 187.748V187.367L276.011 177.95C276.011 177.95 292.82 200.92 294.652 208.283C296.486 215.644 299.851 230.666 299.851 230.666L284.218 244.211Z" fill="#EBAD90"/>
<path d="M376.31 150.732C376.148 150.732 375.988 150.717 375.829 150.686C375.671 150.654 375.517 150.61 375.367 150.549C375.218 150.489 375.076 150.416 374.942 150.328C374.808 150.242 374.684 150.143 374.57 150.032C374.456 149.922 374.354 149.803 374.265 149.672C374.174 149.543 374.1 149.406 374.037 149.261C373.976 149.118 373.929 148.97 373.898 148.817C373.865 148.664 373.85 148.51 373.85 148.354C373.85 148.197 373.865 148.043 373.898 147.89C373.929 147.737 373.976 147.589 374.037 147.446C374.1 147.303 374.176 147.166 374.265 147.037C374.354 146.906 374.456 146.787 374.57 146.677C374.684 146.567 374.808 146.468 374.944 146.382C375.078 146.296 375.22 146.223 375.368 146.162C375.517 146.104 375.671 146.059 375.829 146.029C375.988 145.998 376.148 145.983 376.31 145.983C376.47 145.983 376.63 145.998 376.789 146.029C376.948 146.059 377.101 146.104 377.25 146.162C377.4 146.223 377.541 146.296 377.676 146.382C377.81 146.468 377.934 146.567 378.048 146.677C378.162 146.787 378.264 146.906 378.353 147.037C378.444 147.166 378.519 147.303 378.581 147.446C378.643 147.589 378.689 147.737 378.722 147.89C378.753 148.043 378.768 148.197 378.768 148.354C378.768 148.51 378.753 148.664 378.722 148.817C378.691 148.97 378.643 149.118 378.581 149.261C378.52 149.406 378.444 149.543 378.355 149.672C378.264 149.803 378.164 149.922 378.05 150.032C377.934 150.143 377.81 150.242 377.676 150.328C377.542 150.416 377.4 150.489 377.252 150.549C377.101 150.61 376.948 150.654 376.789 150.686C376.63 150.717 376.47 150.732 376.31 150.732Z" fill="#E9EAF6"/>
<path d="M320.538 352.504C306.978 352.504 303.39 337.929 303.362 337.789C303.335 337.697 303.329 337.603 303.342 337.507C303.355 337.412 303.388 337.323 303.44 337.24C303.491 337.157 303.555 337.087 303.636 337.03C303.717 336.974 303.806 336.934 303.904 336.914C304.001 336.891 304.099 336.89 304.198 336.906C304.297 336.923 304.388 336.958 304.47 337.011C304.555 337.063 304.624 337.13 304.679 337.211C304.735 337.291 304.771 337.379 304.789 337.474C305.472 339.939 306.549 342.232 308.021 344.353C311.154 348.824 315.369 351.082 320.558 351.082C320.655 351.084 320.748 351.103 320.839 351.14C320.928 351.176 321.007 351.229 321.076 351.296C321.144 351.362 321.197 351.439 321.235 351.526C321.271 351.614 321.29 351.703 321.29 351.799C321.29 351.893 321.271 351.985 321.232 352.073C321.194 352.16 321.139 352.238 321.068 352.305C320.997 352.37 320.916 352.421 320.824 352.456C320.733 352.491 320.637 352.507 320.538 352.504Z" fill="#E9EAF6"/>
<path d="M287.748 227.404C286.068 227.404 284.484 227.031 282.994 226.287C275.49 222.615 272.385 211.211 272.249 210.727C272.224 210.636 272.22 210.544 272.233 210.45C272.246 210.356 272.277 210.27 272.329 210.189C272.378 210.108 272.443 210.038 272.52 209.982C272.599 209.925 272.685 209.886 272.78 209.862C272.875 209.84 272.971 209.835 273.067 209.85C273.163 209.862 273.254 209.893 273.338 209.94C273.421 209.988 273.493 210.05 273.551 210.125C273.611 210.2 273.652 210.283 273.677 210.374C273.677 210.485 276.754 221.649 283.658 225.033C284.292 225.334 284.952 225.564 285.639 225.725C286.324 225.886 287.02 225.972 287.727 225.985C288.432 225.996 289.131 225.934 289.823 225.797C290.516 225.66 291.183 225.451 291.827 225.173C291.918 225.138 292.014 225.12 292.111 225.122C292.211 225.123 292.305 225.143 292.396 225.181C292.486 225.217 292.566 225.27 292.633 225.338C292.703 225.407 292.756 225.485 292.792 225.572C292.83 225.66 292.848 225.751 292.848 225.846C292.848 225.94 292.83 226.031 292.792 226.119C292.754 226.206 292.7 226.283 292.629 226.35C292.559 226.416 292.478 226.467 292.387 226.502C290.901 227.087 289.354 227.388 287.748 227.404Z" fill="#18253B"/>
<path d="M452.111 297.196C451.967 289.377 451.852 282.629 451.852 277.237C451.852 277.143 451.87 277.054 451.906 276.967C451.944 276.881 451.997 276.804 452.067 276.737C452.134 276.672 452.214 276.621 452.303 276.585C452.394 276.55 452.486 276.53 452.584 276.53C452.681 276.53 452.775 276.55 452.864 276.585C452.954 276.621 453.033 276.672 453.102 276.737C453.172 276.804 453.225 276.881 453.261 276.967C453.299 277.054 453.317 277.143 453.317 277.237C453.317 282.61 453.443 289.322 453.578 297.177C454.378 342.335 455.719 417.909 437.443 431.174C427.278 438.545 402.513 447.181 363.839 456.812C335.081 463.977 308.965 469.054 308.704 469.1H308.559C308.402 469.098 308.258 469.052 308.129 468.965C308.001 468.875 307.91 468.759 307.855 468.616L302.339 452.685C302.314 452.597 302.308 452.508 302.318 452.419C302.328 452.328 302.356 452.243 302.399 452.164C302.443 452.084 302.501 452.014 302.572 451.957C302.645 451.898 302.726 451.855 302.813 451.826C302.903 451.798 302.995 451.785 303.088 451.791C303.182 451.796 303.271 451.818 303.357 451.856C303.441 451.895 303.515 451.947 303.58 452.013C303.644 452.078 303.694 452.153 303.729 452.237L309.051 467.566C317.819 465.837 413.622 446.661 436.556 430.021C454.234 417.193 452.873 342.065 452.111 297.196ZM408.713 237.109C408.622 237.155 408.542 237.217 408.478 237.295C408.412 237.375 408.367 237.462 408.341 237.559C408.313 237.657 408.308 237.755 408.324 237.854C408.341 237.953 408.377 238.045 408.433 238.13C408.49 238.214 408.562 238.284 408.648 238.34C408.736 238.394 408.83 238.43 408.932 238.448C409.036 238.464 409.137 238.461 409.238 238.437C409.34 238.411 409.431 238.368 409.514 238.308C410.323 237.805 429.65 226.224 445.439 246.05C445.589 246.231 445.786 246.321 446.027 246.321C446.192 246.321 446.339 246.271 446.47 246.171C446.547 246.115 446.61 246.047 446.66 245.965C446.707 245.886 446.739 245.798 446.752 245.706C446.764 245.614 446.757 245.521 446.732 245.432C446.707 245.341 446.664 245.26 446.605 245.187C429.979 224.335 408.926 236.959 408.713 237.09V237.109ZM392.8 392.746C392.812 392.832 392.838 392.913 392.881 392.989C392.924 393.066 392.979 393.133 393.047 393.19C393.113 393.247 393.189 393.29 393.273 393.322C393.357 393.352 393.443 393.368 393.534 393.368H393.62C393.717 393.357 393.808 393.33 393.894 393.284C393.98 393.238 394.053 393.177 394.112 393.102C394.172 393.029 394.215 392.946 394.239 392.854C394.264 392.763 394.271 392.671 394.257 392.578C393.592 387.41 388.383 382.854 386.05 381.052C388.104 380.671 393.129 380.708 402.166 386.155C402.248 386.204 402.337 386.236 402.433 386.251C402.529 386.266 402.623 386.263 402.719 386.243C402.813 386.222 402.901 386.184 402.98 386.131C403.059 386.077 403.126 386.01 403.178 385.932C403.23 385.852 403.263 385.765 403.279 385.673C403.294 385.579 403.291 385.486 403.268 385.395C403.246 385.303 403.205 385.22 403.147 385.144C403.091 385.067 403.02 385.005 402.937 384.956C393.755 379.378 388.403 379.192 385.877 379.63C386.985 375.66 386.84 365.453 386.513 347.735C385.847 312.868 384.844 260.18 398.211 243.69C398.27 243.615 398.315 243.534 398.34 243.443C398.366 243.352 398.374 243.26 398.361 243.168C398.35 243.074 398.32 242.986 398.272 242.905C398.224 242.822 398.163 242.752 398.085 242.695C398.009 242.637 397.923 242.596 397.829 242.571C397.735 242.545 397.641 242.537 397.543 242.55C397.448 242.561 397.357 242.59 397.271 242.636C397.187 242.682 397.114 242.741 397.054 242.816C383.369 259.696 384.382 312.7 385.047 347.764C385.355 363.845 385.644 379.024 384.083 380.298C371.546 389.958 292.81 421.153 292.011 421.46C291.93 421.489 291.857 421.532 291.791 421.586C291.727 421.64 291.672 421.704 291.631 421.777C291.588 421.85 291.561 421.928 291.547 422.01C291.533 422.092 291.535 422.175 291.551 422.257C291.57 422.339 291.599 422.416 291.644 422.486C291.69 422.557 291.746 422.62 291.813 422.672C291.88 422.723 291.956 422.763 292.037 422.79C292.12 422.815 292.204 422.828 292.29 422.827C292.387 422.827 292.48 422.807 292.569 422.771C295.781 421.507 370.619 391.852 384.545 381.73C386.166 382.883 392.116 387.596 392.8 392.727V392.746ZM338.302 332.426C344.195 334.74 349.45 335.893 354.031 335.893C355.108 335.925 356.18 335.867 357.247 335.722C358.313 335.578 359.36 335.347 360.386 335.031C361.412 334.714 362.402 334.316 363.358 333.837C364.313 333.358 365.22 332.804 366.077 332.175C371.603 328.011 374.969 320.146 375.798 309.457C376.163 304.458 376.029 299.473 375.393 294.5C375.368 294.342 375.297 294.207 375.18 294.095C375.061 293.982 374.921 293.917 374.757 293.895L349.334 290.734C349.238 290.723 349.143 290.728 349.048 290.753C348.954 290.777 348.868 290.817 348.792 290.874C348.715 290.932 348.652 291.002 348.602 291.083C348.554 291.164 348.523 291.25 348.51 291.344C348.498 291.436 348.503 291.529 348.528 291.619C348.554 291.71 348.596 291.793 348.655 291.868C348.715 291.941 348.786 292.003 348.87 292.049C348.954 292.097 349.045 292.126 349.143 292.139L374.004 295.234C374.37 298.347 374.537 301.471 374.506 304.603C374.46 304.492 374.387 304.398 374.29 304.321C374.19 304.245 374.08 304.197 373.956 304.177L345.824 299.984C345.726 299.963 345.627 299.963 345.528 299.982C345.429 300.001 345.338 300.038 345.255 300.094C345.173 300.15 345.105 300.218 345.05 300.301C344.998 300.382 344.963 300.471 344.948 300.568C344.932 300.664 344.938 300.759 344.963 300.853C344.988 300.947 345.032 301.033 345.093 301.11C345.156 301.186 345.231 301.248 345.32 301.294C345.407 301.341 345.501 301.369 345.602 301.379L373.763 305.599H373.878C374.017 305.595 374.144 305.559 374.261 305.487C374.377 305.415 374.465 305.318 374.526 305.199C374.39 313.788 372.684 325.426 365.2 331.078C359.192 335.595 350.339 335.614 338.88 331.078C338.791 331.039 338.697 331.02 338.598 331.019C338.5 331.017 338.406 331.035 338.314 331.071C338.223 331.106 338.143 331.159 338.074 331.226C338.005 331.293 337.952 331.371 337.917 331.46C337.872 331.547 337.849 331.641 337.846 331.738C337.841 331.836 337.858 331.931 337.894 332.022C337.93 332.113 337.985 332.194 338.056 332.264C338.127 332.334 338.208 332.388 338.302 332.426ZM480.195 467.036L328.466 468.896C328.375 468.906 328.289 468.931 328.208 468.971C328.127 469.012 328.056 469.065 327.995 469.13C327.936 469.195 327.888 469.27 327.856 469.352C327.823 469.434 327.807 469.519 327.807 469.606C327.807 469.694 327.823 469.78 327.856 469.861C327.888 469.944 327.936 470.017 327.995 470.082C328.056 470.149 328.127 470.202 328.208 470.242C328.289 470.283 328.375 470.309 328.466 470.318L480.195 468.458C480.293 468.458 480.385 468.441 480.475 468.404C480.566 468.369 480.645 468.318 480.713 468.251C480.782 468.186 480.835 468.109 480.873 468.022C480.909 467.936 480.927 467.845 480.927 467.753C480.927 467.659 480.909 467.568 480.873 467.482C480.835 467.395 480.782 467.318 480.713 467.253C480.645 467.186 480.566 467.135 480.475 467.1C480.385 467.063 480.293 467.046 480.195 467.046V467.036ZM313.999 470.457H300.844C300.747 470.458 300.652 470.477 300.563 470.514C300.474 470.551 300.395 470.603 300.325 470.67C300.258 470.737 300.205 470.815 300.167 470.901C300.13 470.988 300.112 471.079 300.112 471.173C300.112 471.267 300.13 471.356 300.167 471.444C300.205 471.53 300.258 471.606 300.327 471.673C300.395 471.738 300.474 471.789 300.563 471.826C300.654 471.861 300.747 471.88 300.844 471.88H313.999C314.097 471.88 314.189 471.861 314.28 471.826C314.369 471.789 314.448 471.738 314.518 471.673C314.586 471.606 314.638 471.53 314.676 471.444C314.713 471.356 314.733 471.267 314.733 471.173C314.733 471.079 314.713 470.988 314.676 470.901C314.64 470.815 314.587 470.737 314.518 470.67C314.448 470.603 314.371 470.551 314.28 470.514C314.191 470.477 314.097 470.458 313.999 470.457ZM366.309 222.673H366.452L434.626 209.324C434.714 209.297 434.795 209.256 434.866 209.2C434.937 209.146 434.996 209.079 435.042 209.002C435.089 208.926 435.12 208.845 435.135 208.757C435.15 208.67 435.148 208.584 435.13 208.496C435.11 208.41 435.077 208.329 435.028 208.254C434.978 208.181 434.915 208.117 434.841 208.065C434.768 208.012 434.686 207.974 434.598 207.952C434.509 207.928 434.42 207.92 434.327 207.929L366.163 221.278C366.071 221.292 365.985 221.322 365.904 221.367C365.825 221.413 365.755 221.472 365.699 221.544C365.641 221.615 365.6 221.693 365.573 221.781C365.549 221.867 365.54 221.956 365.549 222.045C365.559 222.134 365.585 222.22 365.628 222.3C365.671 222.38 365.727 222.45 365.798 222.509C365.868 222.568 365.948 222.612 366.036 222.642C366.124 222.671 366.214 222.685 366.309 222.681V222.673ZM304.693 237.47C304.622 237.405 304.543 237.354 304.454 237.319C304.363 237.282 304.269 237.265 304.171 237.265C304.074 237.265 303.981 237.282 303.89 237.319C303.8 237.354 303.72 237.405 303.651 237.47L285.067 254.305C284.998 254.371 284.945 254.449 284.909 254.535C284.872 254.623 284.854 254.714 284.854 254.808C284.854 254.902 284.872 254.991 284.909 255.078C284.945 255.164 284.998 255.242 285.067 255.309C285.216 255.451 285.396 255.523 285.608 255.523C285.801 255.526 285.968 255.464 286.108 255.336L304.702 238.466C304.768 238.397 304.817 238.319 304.85 238.231C304.885 238.144 304.9 238.053 304.895 237.961C304.892 237.867 304.87 237.778 304.83 237.693C304.789 237.609 304.735 237.534 304.664 237.47H304.693ZM349.932 223.927C349.98 224.076 350.068 224.198 350.198 224.291C350.329 224.383 350.474 224.429 350.638 224.429C350.707 224.439 350.778 224.439 350.849 224.429C350.943 224.402 351.027 224.359 351.103 224.3C351.178 224.24 351.239 224.17 351.285 224.087C351.331 224.002 351.36 223.915 351.369 223.821C351.379 223.727 351.369 223.636 351.341 223.545L349.151 216.695C349.124 216.604 349.08 216.523 349.017 216.45C348.956 216.377 348.881 216.319 348.796 216.275C348.71 216.23 348.619 216.203 348.521 216.193C348.424 216.184 348.328 216.193 348.236 216.221C348.143 216.249 348.059 216.292 347.984 216.353C347.908 216.412 347.849 216.483 347.803 216.566C347.756 216.647 347.728 216.736 347.718 216.829C347.709 216.923 347.717 217.014 347.743 217.104L349.932 223.927ZM259.279 428.916L226.026 425.029C225.933 425.027 225.846 425.041 225.758 425.072C225.672 425.102 225.595 425.145 225.525 425.204C225.456 425.261 225.398 425.33 225.355 425.408C225.312 425.486 225.284 425.569 225.274 425.656C225.263 425.744 225.268 425.831 225.289 425.917C225.312 426.003 225.349 426.081 225.401 426.155C225.454 426.228 225.519 426.288 225.595 426.338C225.671 426.387 225.753 426.422 225.842 426.443L259.028 430.328H259.124C259.213 430.328 259.299 430.312 259.383 430.28C259.466 430.25 259.542 430.205 259.608 430.148C259.674 430.091 259.729 430.024 259.77 429.947C259.811 429.871 259.838 429.79 259.848 429.705C259.859 429.612 259.853 429.519 259.826 429.427C259.8 429.336 259.757 429.253 259.696 429.18C259.635 429.105 259.562 429.045 259.476 429C259.39 428.954 259.299 428.925 259.202 428.916H259.279ZM257.254 439.632L222.96 436.221C222.862 436.212 222.766 436.22 222.672 436.247C222.58 436.274 222.494 436.317 222.418 436.376C222.342 436.435 222.281 436.506 222.234 436.589C222.188 436.672 222.158 436.76 222.149 436.853C222.139 436.947 222.147 437.04 222.175 437.129C222.203 437.22 222.248 437.301 222.309 437.374C222.37 437.447 222.444 437.506 222.53 437.553C222.616 437.597 222.707 437.624 222.804 437.634L257.109 441.046H257.099C257.196 441.049 257.29 441.035 257.381 441.003C257.472 440.971 257.553 440.923 257.626 440.861C257.697 440.798 257.753 440.723 257.794 440.638C257.835 440.554 257.859 440.465 257.862 440.371C257.867 440.279 257.854 440.188 257.821 440.1C257.788 440.011 257.738 439.933 257.674 439.863C257.607 439.795 257.531 439.74 257.444 439.701C257.356 439.659 257.264 439.637 257.166 439.632H257.254ZM255.055 450.173L232.112 448.315C232.014 448.307 231.919 448.317 231.826 448.345C231.734 448.374 231.649 448.417 231.575 448.478C231.501 448.538 231.44 448.61 231.395 448.693C231.349 448.775 231.321 448.863 231.311 448.957C231.304 449.051 231.316 449.142 231.347 449.232C231.377 449.321 231.423 449.401 231.486 449.474C231.549 449.546 231.625 449.603 231.71 449.648C231.796 449.693 231.889 449.718 231.986 449.728L254.93 451.587H254.997C255.093 451.591 255.187 451.575 255.278 451.543C255.369 451.509 255.45 451.462 255.521 451.398C255.592 451.334 255.648 451.261 255.688 451.175C255.729 451.091 255.751 451.001 255.754 450.907C255.759 450.815 255.744 450.724 255.709 450.637C255.676 450.549 255.627 450.471 255.562 450.403C255.496 450.333 255.419 450.278 255.331 450.24C255.243 450.2 255.151 450.178 255.055 450.173Z" fill="#18253B"/>
<path d="M199.67 193.316C199.696 193.407 199.703 193.5 199.691 193.592C199.68 193.686 199.65 193.773 199.602 193.856C199.554 193.937 199.491 194.007 199.415 194.066C199.338 194.124 199.252 194.165 199.158 194.191C199.093 194.199 199.029 194.199 198.964 194.191C198.799 194.191 198.65 194.141 198.518 194.046C198.384 193.949 198.297 193.823 198.251 193.67C194.76 181.586 184.605 178.016 184.509 177.987C184.413 177.957 184.327 177.911 184.251 177.845C184.175 177.782 184.118 177.705 184.075 177.618C184.032 177.53 184.009 177.436 184.005 177.339C184.002 177.242 184.019 177.149 184.055 177.059C184.086 176.965 184.134 176.882 184.2 176.809C184.266 176.734 184.346 176.676 184.438 176.635C184.529 176.594 184.626 176.571 184.727 176.57C184.828 176.567 184.925 176.584 185.02 176.621C185.434 176.826 195.966 180.46 199.67 193.316ZM227.868 177.151C227.794 177.09 227.709 177.046 227.617 177.017C227.524 176.989 227.429 176.979 227.331 176.987C227.235 176.997 227.143 177.024 227.057 177.068C226.971 177.113 226.898 177.172 226.836 177.243C219.459 185.769 219.372 193.53 219.372 193.856C219.372 193.949 219.39 194.039 219.428 194.125C219.464 194.213 219.517 194.289 219.586 194.355C219.656 194.421 219.735 194.472 219.824 194.507C219.914 194.544 220.008 194.562 220.105 194.562C220.203 194.562 220.295 194.544 220.384 194.507C220.475 194.472 220.555 194.421 220.622 194.355C220.692 194.289 220.745 194.213 220.783 194.125C220.819 194.039 220.837 193.949 220.837 193.856C220.837 193.781 220.944 186.261 227.964 178.146C228.025 178.073 228.07 177.992 228.098 177.903C228.126 177.813 228.136 177.723 228.126 177.63C228.117 177.536 228.091 177.449 228.046 177.366C228.002 177.283 227.942 177.211 227.868 177.151ZM191.877 157.994C192.011 157.994 205.523 154.274 214.597 160.019C214.723 160.092 214.857 160.13 215.004 160.13C215.167 160.134 215.314 160.087 215.447 159.994C215.579 159.901 215.668 159.779 215.714 159.627C215.762 159.476 215.757 159.326 215.701 159.178C215.643 159.03 215.546 158.914 215.409 158.83C205.764 152.75 192.051 156.478 191.471 156.635C191.377 156.661 191.292 156.702 191.215 156.759C191.139 156.818 191.076 156.888 191.03 156.971C190.982 157.052 190.954 157.14 190.944 157.234C190.932 157.328 190.942 157.419 190.97 157.509C190.995 157.6 191.038 157.683 191.099 157.756C191.159 157.83 191.233 157.89 191.317 157.935C191.403 157.981 191.494 158.008 191.591 158.019C191.687 158.029 191.783 158.021 191.877 157.994ZM191.828 161.906C191.735 161.933 191.652 161.976 191.576 162.035C191.501 162.094 191.439 162.164 191.393 162.245C191.347 162.326 191.317 162.414 191.306 162.506C191.294 162.599 191.301 162.689 191.327 162.78C191.353 162.877 191.398 162.963 191.463 163.041C191.527 163.119 191.606 163.181 191.697 163.228C191.79 163.274 191.887 163.301 191.991 163.306C192.094 163.312 192.194 163.298 192.292 163.264C192.426 163.264 205.937 159.544 215.012 165.29C215.136 165.364 215.271 165.401 215.418 165.401C215.58 165.401 215.727 165.355 215.858 165.261C215.987 165.167 216.076 165.044 216.121 164.893C216.167 164.743 216.162 164.594 216.104 164.447C216.048 164.301 215.95 164.185 215.813 164.1C206.121 158.021 192.407 161.748 191.828 161.906ZM216.497 170.078C206.854 163.998 193.139 167.716 192.561 167.884C192.47 167.912 192.389 167.955 192.317 168.014C192.242 168.073 192.184 168.143 192.14 168.224C192.095 168.304 192.067 168.39 192.057 168.482C192.047 168.573 192.056 168.662 192.082 168.751C192.108 168.839 192.151 168.919 192.209 168.992C192.269 169.063 192.338 169.122 192.421 169.169C192.503 169.213 192.592 169.243 192.687 169.256C192.781 169.267 192.873 169.263 192.966 169.24C193.101 169.24 206.613 165.522 215.698 171.258C215.815 171.339 215.947 171.38 216.092 171.379C216.256 171.38 216.405 171.336 216.537 171.242C216.667 171.148 216.758 171.027 216.804 170.876C216.852 170.724 216.847 170.575 216.79 170.427C216.733 170.278 216.636 170.162 216.497 170.078Z" fill="#18253B"/>
<path d="M341.667 128.664C341.609 128.674 341.551 128.674 341.493 128.664C341.327 128.664 341.176 128.615 341.044 128.516C340.912 128.417 340.824 128.29 340.78 128.136C340.709 127.811 340.61 127.494 340.484 127.187C340.359 126.878 340.207 126.581 340.03 126.296C339.853 126.013 339.653 125.744 339.43 125.492C339.207 125.239 338.963 125.007 338.7 124.793C338.437 124.58 338.156 124.389 337.861 124.222C337.565 124.053 337.256 123.908 336.934 123.79C336.613 123.671 336.285 123.578 335.948 123.511C335.611 123.445 335.27 123.406 334.927 123.394C334.829 123.395 334.735 123.379 334.646 123.343C334.557 123.308 334.477 123.257 334.408 123.19C334.34 123.123 334.289 123.046 334.253 122.959C334.216 122.871 334.2 122.782 334.203 122.688C334.203 122.594 334.221 122.503 334.259 122.418C334.296 122.332 334.349 122.255 334.418 122.188C334.487 122.121 334.567 122.07 334.656 122.035C334.745 121.999 334.839 121.981 334.937 121.981C335.36 121.997 335.779 122.046 336.194 122.129C336.61 122.21 337.015 122.325 337.411 122.472C337.806 122.617 338.188 122.793 338.555 122.999C338.92 123.206 339.267 123.438 339.592 123.699C339.919 123.96 340.221 124.246 340.499 124.553C340.777 124.862 341.028 125.19 341.249 125.538C341.472 125.886 341.664 126.249 341.824 126.626C341.986 127.005 342.113 127.394 342.207 127.792C342.234 127.884 342.24 127.978 342.227 128.072C342.214 128.167 342.181 128.257 342.13 128.339C342.08 128.421 342.014 128.491 341.933 128.546C341.854 128.604 341.764 128.644 341.667 128.664ZM334.917 135.683C335.047 135.683 335.178 135.671 335.307 135.645C335.436 135.621 335.559 135.585 335.682 135.535C335.802 135.486 335.918 135.427 336.027 135.357C336.134 135.285 336.235 135.206 336.328 135.115C336.42 135.026 336.503 134.927 336.575 134.822C336.646 134.717 336.708 134.605 336.757 134.487C336.807 134.37 336.843 134.25 336.868 134.126C336.893 134.002 336.904 133.876 336.903 133.749C336.901 133.623 336.888 133.497 336.86 133.374C336.833 133.25 336.793 133.129 336.742 133.013C336.689 132.897 336.627 132.787 336.552 132.683C336.478 132.578 336.394 132.483 336.3 132.395C336.205 132.306 336.103 132.228 335.994 132.159C335.883 132.091 335.766 132.034 335.645 131.987C335.523 131.94 335.398 131.906 335.267 131.884C335.138 131.862 335.008 131.851 334.877 131.854C334.747 131.857 334.616 131.871 334.487 131.898C334.36 131.925 334.236 131.965 334.116 132.016C333.995 132.067 333.881 132.129 333.774 132.201C333.666 132.274 333.567 132.355 333.478 132.448C333.387 132.538 333.306 132.639 333.237 132.745C333.166 132.852 333.108 132.965 333.062 133.083C333.014 133.201 332.979 133.322 332.958 133.448C332.936 133.572 332.926 133.698 332.929 133.823C332.933 133.948 332.949 134.072 332.977 134.193C333.005 134.314 333.045 134.432 333.096 134.545C333.149 134.659 333.212 134.768 333.286 134.87C333.361 134.972 333.443 135.065 333.536 135.151C333.63 135.237 333.731 135.314 333.838 135.381C333.947 135.449 334.061 135.505 334.182 135.551C334.302 135.596 334.425 135.631 334.552 135.653C334.679 135.675 334.808 135.685 334.937 135.683H334.917ZM338.437 161.535C335.9 164.686 329.014 163.013 328.946 163.003C328.851 162.974 328.753 162.965 328.654 162.976C328.555 162.986 328.461 163.014 328.373 163.06C328.286 163.108 328.211 163.17 328.15 163.247C328.089 163.323 328.046 163.408 328.021 163.501C327.996 163.595 327.992 163.689 328.006 163.785C328.021 163.88 328.054 163.97 328.107 164.051C328.16 164.134 328.228 164.202 328.31 164.256C328.393 164.312 328.482 164.35 328.581 164.369C330.007 164.697 331.454 164.864 332.921 164.871C335.264 164.871 338.003 164.379 339.594 162.408C339.655 162.334 339.698 162.251 339.724 162.162C339.749 162.072 339.757 161.979 339.746 161.885C339.734 161.793 339.704 161.705 339.656 161.622C339.609 161.541 339.546 161.471 339.468 161.414C339.392 161.355 339.306 161.314 339.212 161.288C339.12 161.264 339.024 161.256 338.926 161.267C338.83 161.28 338.74 161.309 338.654 161.355C338.569 161.401 338.497 161.46 338.437 161.535Z" fill="#18253B"/>
</svg>
